<svg width="294" height="509" viewBox="0 0 294 509" fill="none" xmlns="http://www.w3.org/2000/svg">
<path d="M222.5 246C250.943 246 274 269.057 274 297.5V334.5C274 362.943 250.943 386 222.5 386C206.134 386 191.554 378.364 182.121 366.462C180.806 364.803 178.194 364.803 176.879 366.462C167.446 378.364 152.866 386 136.5 386C120.204 386 105.678 378.43 96.2411 366.616C94.9222 364.965 92.3163 364.972 91.0046 366.629C81.6641 378.428 67.2176 386 51 386C22.8335 386 0 363.167 0 335V297C0 268.833 22.8335 246 51 246C67.2174 246 81.664 253.571 91.0047 265.37C92.3164 267.027 94.9222 267.034 96.2411 265.383C105.678 253.569 120.204 246 136.5 246C152.866 246 167.446 253.635 176.879 265.537C178.194 267.196 180.806 267.196 182.121 265.537C191.554 253.635 206.134 246 222.5 246Z" fill="white"/>
<circle cx="271.5" cy="381.5" r="11.5" fill="white"/>
<circle cx="288.5" cy="396.5" r="5.5" fill="white"/>
<rect y="386" width="274" height="123" rx="32" fill="#FFE23C"/>
<path d="M212.5 123C246.466 123 274 150.534 274 184.5C274 218.466 246.466 246 212.5 246C203.825 246 195.833 250.704 191.622 258.289L183.062 273.707C183.021 273.781 183.005 273.866 182.984 273.948C182.901 274.275 182.505 274.43 182.221 274.235C182.173 274.202 182.139 274.152 182.113 274.1C173.778 256.913 156.356 246 137.255 246H61.5C27.5345 246 0 218.466 0 184.5C0 150.534 27.5345 123 61.5 123H212.5Z" fill="#FF830F"/>
<path d="M250 0C263.255 0 274 10.7452 274 24V99C274 112.255 263.255 123 250 123H99.9912C69.2473 125.795 50.5519 156.023 49.8662 157.147C49.8436 157.185 49.8316 157.196 49.7969 157.223C49.477 157.464 48.9991 157.239 48.999 156.82L48.877 147.552C48.6978 133.94 37.6126 123 24 123C10.7452 123 0 112.255 0 99V24C0 10.7452 10.7452 0 24 0H250Z" fill="#005E26"/>
</svg>
