<svg width="120" height="144" viewBox="0 0 120 144" fill="none" xmlns="http://www.w3.org/2000/svg">
<path d="M94.7695 21C108.392 21 119.436 32.0433 119.436 45.666C119.435 59.2886 108.392 70.332 94.7695 70.332C92.8493 70.332 91.8756 72.9831 93.0908 74.4699C96.5652 78.7207 98.6493 84.152 98.6494 90.0703C98.6494 103.695 87.605 114.74 73.9805 114.74H24.6699C11.0453 114.74 5.9538e-07 103.695 0 90.0703C0.000198349 76.4459 11.0455 65.4014 24.6699 65.4014C26.593 65.4014 27.5684 62.746 26.352 61.2566C22.8816 57.0076 20.7998 51.5801 20.7998 45.666C20.7998 32.0434 31.8432 21.0001 45.4658 21H94.7695Z" fill="#45C7FF"/>
<path d="M59.4443 106.139L73.8866 114.735L71.5492 114.748C69.2691 114.762 67.0874 115.679 65.4832 117.3L59.4443 123.4C59.4443 123.4 59.4443 114.769 50.9002 114.769C42.356 114.769 59.4443 106.139 59.4443 106.139Z" fill="#45C7FF"/>
</svg>
