<svg width="200" height="144" viewBox="0 0 200 144" fill="none" xmlns="http://www.w3.org/2000/svg">
<path d="M176.64 34C189.364 34 199.68 44.3154 199.68 57.04V87.7598C199.68 100.484 189.364 110.8 176.64 110.8C169.351 110.8 162.854 107.415 158.633 102.132C157.475 100.683 155.003 100.683 153.846 102.132C149.624 107.415 143.128 110.8 135.84 110.8C129.591 110.8 123.923 108.311 119.773 104.272C118.715 103.242 116.963 103.242 115.905 104.272C111.755 108.311 106.088 110.8 99.8389 110.8C93.0685 110.8 86.9805 107.879 82.7653 103.23C81.6593 102.01 79.6161 102.01 78.51 103.23C74.2949 107.879 68.2077 110.8 61.4375 110.8C54.6679 110.8 48.5807 107.88 44.3656 103.231C43.2596 102.012 41.2169 102.012 40.111 103.231C35.896 107.88 29.8094 110.8 23.04 110.8C10.3157 110.8 0.000258618 100.485 0 87.7607V57.04C0.000156772 44.3156 10.3156 34.0001 23.04 34C29.8093 34 35.896 36.9201 40.111 41.5686C41.217 42.7883 43.2595 42.7883 44.3655 41.5686C48.5807 36.9199 54.6681 34.0001 61.4375 34C68.2076 34 74.2949 36.9208 78.5101 41.5704C79.6161 42.7904 81.6592 42.7904 82.7653 41.5704C86.9805 36.9207 93.0686 34.0001 99.8389 34C106.087 34 111.754 36.4885 115.905 40.5276C116.963 41.5573 118.715 41.5573 119.773 40.5275C123.923 36.4882 129.591 34 135.84 34C143.128 34 149.624 37.3845 153.846 42.6669C155.004 44.1157 157.475 44.1157 158.633 42.6669C162.854 37.3844 169.352 34.0001 176.64 34Z" fill="#06C755"/>
</svg>
