<svg width="99" height="144" viewBox="0 0 99 144" fill="none" xmlns="http://www.w3.org/2000/svg">
<path d="M42.668 21C49.8503 21.0001 55.6727 26.8225 55.6729 34.0049V34.9162C55.6729 36.0692 56.6076 37.0039 57.7606 37.0039H63.8887C71.0713 37.0039 76.8945 42.8272 76.8945 50.0098V50.9201C76.8945 52.0731 77.8292 53.0078 78.9823 53.0078H85.1211C92.3035 53.0078 98.1267 58.8304 98.127 66.0127V109.594C98.127 116.776 92.3037 122.6 85.1211 122.6H55.459C48.2765 122.599 42.4541 116.776 42.4541 109.594V108.683C42.4541 107.53 41.5194 106.596 40.3664 106.596H34.2266C27.0441 106.596 21.2209 100.773 21.2207 93.5908V92.6786C21.2207 91.5255 20.286 90.5908 19.133 90.5908H13.0049C5.82246 90.5906 0 84.7684 0 77.5859V34.0049C0.000177037 26.8226 5.82256 21.0002 13.0049 21H42.668Z" fill="#006027"/>
</svg>
