<svg width="321" height="241" viewBox="0 0 321 241" fill="none" xmlns="http://www.w3.org/2000/svg">
<path d="M160.223 0C175.65 6.04456e-07 189.379 7.26814 198.174 18.5667C200.098 21.0386 203.639 21.7615 206.378 20.2425C213.274 16.4191 221.209 14.2418 229.652 14.2418C256.199 14.2419 277.719 35.7621 277.719 62.3086C277.719 63.4082 277.682 64.4993 277.609 65.5805C277.398 68.7281 279.592 71.643 282.674 72.3156C304.273 77.0292 320.445 96.2642 320.445 119.277C320.445 142.323 304.226 161.58 282.579 166.257C279.401 166.944 277.165 170.009 277.484 173.245C277.64 174.817 277.719 176.412 277.719 178.025C277.719 204.571 256.199 226.091 229.652 226.092C221.209 226.092 213.274 223.914 206.378 220.091C203.639 218.571 200.098 219.294 198.174 221.766C189.379 233.065 175.65 240.334 160.223 240.334C144.795 240.334 131.066 233.065 122.271 221.766C120.347 219.294 116.806 218.571 114.066 220.091C107.171 223.914 99.236 226.092 90.7926 226.092C64.2462 226.091 42.7259 204.571 42.7259 178.025C42.7259 176.412 42.8054 174.817 42.9606 173.245C43.2802 170.009 41.0435 166.944 37.8657 166.257C16.2193 161.58 7.2465e-05 142.323 0 119.277C0 95.6055 17.1108 75.9308 39.6385 71.9464C43.0043 71.3511 45.4247 68.097 45.0252 64.7024C44.8063 62.8418 44.6937 60.9487 44.6937 59.0294C44.6937 32.4828 66.2139 10.9626 92.7604 10.9626C101.411 10.9626 109.527 13.2477 116.539 17.247C119.121 18.7195 122.458 18.1802 124.443 15.9686C133.243 6.16615 146.013 6.21131e-07 160.223 0Z" fill="url(#paint0_linear_954_197)"/>
<defs>
<linearGradient id="paint0_linear_954_197" x1="160.223" y1="0" x2="160.223" y2="240.334" gradientUnits="userSpaceOnUse">
<stop stop-color="#CDDEF2"/>
<stop offset="1" stop-color="#F4F7D9"/>
</linearGradient>
</defs>
</svg>
