<svg width="519" height="364" viewBox="0 0 519 364" fill="none" xmlns="http://www.w3.org/2000/svg">
<g clip-path="url(#clip0_1411_379)">
<path d="M510 10.4999C510 274 216.5 333 -10 333V381.999L520.343 381.999C598.565 214.305 510 -306.481 510 10.4999Z" fill="#0091FF"/>
<path d="M-10 364.999C177.63 364.999 474.028 350.589 570.232 195.852C599.989 20.9217 601.5 -146.96 601.5 80.5002C601.5 125.719 590.162 163.797 570.232 195.852C558.521 264.7 542.434 334.639 520.343 381.999L-10 381.999V364.999Z" fill="#124BDD"/>
<path d="M444.5 113L425.485 126.105L446.342 136.02L444.5 113ZM228.5 275.5L228.922 277.455C301.094 261.889 395.221 212.041 438.535 130.201L436.768 129.265L435 128.33C392.422 208.778 299.546 258.13 228.078 273.545L228.5 275.5Z" fill="white"/>
</g>
<defs>
<clipPath id="clip0_1411_379">
<rect width="519" height="364" fill="white"/>
</clipPath>
</defs>
</svg>
