<svg width="612" height="472" viewBox="0 0 612 472" fill="none" xmlns="http://www.w3.org/2000/svg">
<path d="M520 100.291C520 363.791 226.5 422.791 0 422.791V471.79L530.343 471.79C608.565 304.096 520 -216.69 520 100.291Z" fill="#0091FF"/>
<path d="M0 454.79C187.63 454.79 484.028 440.38 580.232 285.643C609.989 110.713 611.5 -57.1685 611.5 170.291C611.5 215.51 600.162 253.588 580.232 285.643C568.521 354.491 552.434 424.43 530.343 471.79L0 471.79V454.79Z" fill="#124BDD"/>
<path d="M454.5 202.791L435.485 215.896L456.342 225.811L454.5 202.791ZM238.5 365.291L238.922 367.246C311.094 351.68 405.221 301.832 448.535 219.992L446.768 219.056L445 218.121C402.422 298.569 309.546 347.921 238.078 363.336L238.5 365.291Z" fill="white"/>
</svg>
