<svg viewBox="0 0 69 16" fill="none" xmlns="http://www.w3.org/2000/svg">
<g fill="currentColor">
<path d="M45.9902 7.71651C45.9902 7.91283 45.9849 8.10519 45.9747 8.29365C46.3895 9.71764 47.7504 11.9288 50.9902 13.7993L49.7402 15.9644C47.575 14.7144 46.0491 13.2757 45.0301 11.871C43.793 14.2306 41.588 15.4974 39.7957 15.9777L39.1486 13.5628C41.0552 13.0519 43.4901 11.3844 43.4901 7.71651V5.35038H45.9902V7.71651Z"/>
<path d="M40.4739 8.08377L37.1479 14.6018L34.921 13.4655L38.247 6.94745L40.4739 8.08377Z"/>
<path d="M43.3985 0.789813L43.1135 1.57753H49.4276L50.5488 3.03866L49.5737 6.67762L47.3313 6.07676L47.9149 3.89902H42.8801L41.6214 5.54269L39.6083 4.44207L41.2155 0L43.3985 0.789813Z"/>
<path d="M39.3426 4.43623L38.1284 6.62169L34.9141 4.83593L36.1282 2.65047L39.3426 4.43623Z"/>
<path d="M3.75802 6.17592C3.75802 7.98107 3.76084 9.76201 3.51266 11.3259C3.38416 12.1356 3.18352 12.9228 2.8627 13.6538H15.9562L15.3581 15.886H0.789203L0 13.9807C0.694523 13.2861 1.09563 12.3143 1.30801 10.976C1.4786 9.90106 1.51551 8.67824 1.52352 7.29201H0.164188V5.05982H2.64192L3.75802 6.17592Z"/>
<path fill-rule="evenodd" clip-rule="evenodd" d="M15.0977 12.7162H5.52154V7.67149H15.0977V12.7162ZM7.93231 10.9305H12.6869V9.45724H7.93231V10.9305Z"/>
<path d="M11.6601 1.93475H15.3209V3.7205H11.6601V4.97053H15.745V6.75629H4.82956V4.97053H9.24931V3.7205H7.59823L5.96641 4.80002L4.70051 3.60889L6.55633 0.394531L8.10282 1.28741L7.72906 1.93475H9.24931V0.394531H11.6601V1.93475Z"/>
<path d="M4.34633 3.06523L2.76792 4.64364L0.200898 2.07661L1.7793 0.498206L4.34633 3.06523Z"/>
<path d="M23.3128 1.66688H25.6343V3.45264H24.062L25.6182 5.00881L24.3555 6.27157L23.3128 5.22889V7.44827H22.5455L23.1367 8.20721H31.6835L32.7996 9.32331C32.7996 10.5112 32.1923 11.5215 31.3502 12.3177C30.5106 13.1116 29.3623 13.7706 28.0554 14.2981C25.632 15.2763 22.4692 15.8798 19.1461 15.9648L18.3374 13.743C19.9945 13.7429 21.6033 13.6029 23.0839 13.3516L22.0771 12.3447L23.6555 10.7663L25.6557 12.7665C26.2121 12.6037 26.7356 12.4236 27.2199 12.2282C28.3739 11.7624 29.2486 11.2327 29.8166 10.6957C29.909 10.6083 29.9911 10.5228 30.064 10.4394H23.3215L19.5104 12.2712L18.341 10.3849L22.1107 7.44827H21.0806V5.22889L18.587 7.7225L17.3242 6.45974L20.3313 3.45264H18.2234V1.66688H21.0806V0.394531H23.3128V1.66688Z"/>
<path d="M30.813 1.66688H33.5139V3.45264H31.5622L34.1675 6.05794L32.9048 7.3207L30.813 5.22889V7.64917H28.5808V5.22889L25.9532 7.85643L24.6905 6.59367L27.8315 3.45264H26.103V1.66688H28.5808V0.394531H30.813V1.66688Z"/>
<path d="M67.6453 7.98371H63.8059V13.0731H68.1135L67.6727 15.5732H62.5559L61.3058 14.3231V7.98371H58.9875C58.8821 10.1408 58.3403 11.8629 57.3365 13.1913C56.2066 14.6866 54.6121 15.5231 52.8346 15.9993L52.1875 13.5845C53.6243 13.1995 54.6527 12.5961 55.3419 11.684C55.947 10.8833 56.3825 9.72312 56.484 7.98371H52.6672V5.66222H67.6453V7.98371Z"/>
<path d="M66.373 3.13984H53.9619V0.818359H66.373V3.13984Z"/>
</g>
</svg>
