<svg viewBox="0 0 71 12" fill="none" xmlns="http://www.w3.org/2000/svg">
<g>
<path d="M63.986 11.9181C61.8075 11.9181 60.3825 10.8698 60.3825 9.33015C60.3825 7.18444 63.0196 6.82409 65.2308 6.36546C66.967 6.00512 67.442 5.67753 67.442 5.20252C67.442 4.76028 66.9015 4.41631 65.886 4.41631C64.6739 4.41631 63.9204 5.00597 63.7075 5.87408H60.5954C61.0213 3.79389 63.1342 2.33612 66.017 2.33612C69.1291 2.33612 70.8326 3.64647 70.8326 6.05425V11.7215H67.4584V10.6896C66.6231 11.5086 65.4274 11.9181 63.986 11.9181ZM63.6748 9.14997C63.6748 9.64136 64.1661 10.0181 65.067 10.0181C65.9515 10.0181 66.8851 9.70687 67.4584 9.14997V7.41375C67.0162 7.65944 66.3774 7.79048 65.6894 7.97065C64.5429 8.2491 63.6748 8.46203 63.6748 9.14997Z" fill="currentColor"/>
<path d="M42.7611 11.7215V2.70977L46.1844 2.45384V3.76113C46.9379 2.87664 48.0026 2.36887 49.3129 2.36887C50.7052 2.36887 51.819 2.95853 52.4086 3.95768C53.244 2.94216 54.4397 2.36887 55.9302 2.36887C58.1742 2.36887 59.6811 3.74475 59.6811 5.9396V11.7215H56.2578V6.34908C56.2578 5.20252 55.5699 4.662 54.5871 4.662C53.9319 4.662 53.3259 4.92407 52.8836 5.34994C52.9 5.54649 52.9164 5.74304 52.9164 5.9396V11.7215H49.5258V6.34908C49.5258 5.20252 48.8707 4.662 47.937 4.662C47.2 4.662 46.5775 4.97321 46.1844 5.46459V11.7215H42.7611Z" fill="currentColor"/>
<path d="M34.938 11.9181C32.7596 11.9181 31.3345 10.8698 31.3345 9.33015C31.3345 7.18444 33.9716 6.82409 36.1829 6.36546C37.9191 6.00512 38.3941 5.67753 38.3941 5.20252C38.3941 4.76028 37.8536 4.41631 36.838 4.41631C35.626 4.41631 34.8725 5.00597 34.6596 5.87408H31.5475C31.9733 3.79389 34.0863 2.33612 36.9691 2.33612C40.0812 2.33612 41.7846 3.64647 41.7846 6.05425V11.7215H38.4105V10.6896C37.5751 11.5086 36.3794 11.9181 34.938 11.9181ZM34.6268 9.14997C34.6268 9.64136 35.1182 10.0181 36.0191 10.0181C36.9036 10.0181 37.8372 9.70687 38.4105 9.14997V7.41375C37.9682 7.65944 37.3294 7.79048 36.6415 7.97065C35.4949 8.2491 34.6268 8.46203 34.6268 9.14997Z" fill="currentColor"/>
<path d="M25.3395 12C22.08 12 19.7705 10.0836 19.7705 7.15168C19.7705 4.23614 22.1292 2.30336 25.3559 2.30336C28.4516 2.30336 30.8758 4.17062 30.8758 7.34823V7.54479H23.0792C23.2102 9.0517 24.0783 9.83791 25.3887 9.83791C26.4206 9.83791 27.174 9.33015 27.518 8.29824H30.7775C30.2042 10.5586 28.1732 12 25.3395 12ZM25.3559 4.39993C24.2749 4.39993 23.505 4.98959 23.2102 6.03788H27.5016C27.1577 4.97321 26.3714 4.39993 25.3559 4.39993Z" fill="currentColor"/>
<path d="M12.4975 11.7215V2.70977L15.9372 2.32588V4.25251C16.6579 3.05681 17.7881 2.38525 19.3769 2.38525H19.9246L19.4127 5.15338C19.1015 5.08786 18.9019 5.0551 18.5743 5.0551C17.4769 5.0551 16.445 5.43183 15.9372 6.13615V11.7215H12.4975Z" fill="currentColor"/>
<path d="M4.65177 11.9345C1.86726 11.9345 0 10.0508 0 7.15168C0 4.30166 1.88364 2.36888 4.65177 2.36888C6.09316 2.36888 7.28886 2.94216 8.07507 3.97407V0.255929L11.4984 0V11.7216H8.07507V10.3293C7.28886 11.3612 6.09316 11.9345 4.65177 11.9345ZM5.70005 9.75602C7.15782 9.75602 8.09145 8.83876 8.09145 7.15168C8.09145 5.4646 7.15782 4.56373 5.70005 4.56373C4.27504 4.56373 3.35779 5.4646 3.35779 7.1353C3.35779 8.83877 4.27504 9.75602 5.70005 9.75602Z" fill="currentColor"/>
</g>
</svg>
