<svg viewBox="0 0 1090 226" fill="none" xmlns="http://www.w3.org/2000/svg">
<path d="M257.812 70.6765C267.753 64.2864 279.495 60.5525 291.964 60.5525C296.735 60.5525 301.399 61.0995 305.897 62.1325C309.828 63.0355 312.142 66.9475 311.545 70.9371L308.463 91.5625C307.863 95.5794 303.237 97.6714 299.327 96.574C296.959 95.9095 294.488 95.5525 291.964 95.5525C276.427 95.5526 262.913 109.068 262.913 124.602L262.914 200.203C262.914 205.615 258.526 210.003 253.114 210.003L237.714 210.003C232.302 210.003 227.914 205.616 227.914 200.203L227.912 110.554L220.221 101.454C212.043 91.7784 213.257 77.3057 222.933 69.1284C229.753 63.3648 239.297 62.0825 247.396 65.8417L257.812 70.6765Z" fill="currentColor"/>
<path d="M162.114 105C162.114 82.5865 154.024 65.5453 141.32 53.9777C128.44 42.2499 109.518 35.0005 86.1643 35.0005H67.2643C61.8519 35.0005 57.4643 39.3881 57.4643 44.8005V165.2C57.4643 170.613 61.8519 175 67.2643 175H86.1643C109.518 175 128.44 167.751 141.32 156.023C154.024 144.456 162.114 127.414 162.114 105ZM197.114 105C197.114 136.486 185.429 163.195 164.883 181.903C144.514 200.45 116.71 210 86.1643 210H52.3386C44.4155 210 36.8168 206.853 31.2143 201.25C25.6117 195.648 22.4643 188.049 22.4643 180.126V54.9601L20.704 52.8683C9.2677 39.2777 11.0142 18.9894 24.605 7.55328C30.4021 2.67527 37.7352 0.000488281 45.3116 0.000488281H86.1643C116.71 0.000488281 144.514 9.55112 164.883 28.0982C185.429 46.8057 197.114 73.5146 197.114 105Z" fill="currentColor"/>
<path d="M385.696 60.7108C403.998 57.4837 419.528 59.2376 432.392 64.9375C445.219 70.6213 454.01 79.6149 459.895 88.5949C464.828 96.1231 468.587 104.757 470.775 113.675C472.586 121.057 470.11 128.658 465.445 134.66C460.838 140.587 454.194 144.591 446.801 145.894L369.629 159.502C368.17 159.759 367.433 161.405 368.305 162.604C370.697 165.894 373.502 168.664 376.627 170.88C384.561 176.509 396.143 179.704 411.875 176.93C421.351 175.26 429.091 171.571 435.361 165.268C438.36 162.253 443.104 161.334 446.588 163.773L461.496 174.212C465.613 177.094 466.654 182.815 463.33 186.585C451.092 200.462 435.423 208.318 417.953 211.399C394.391 215.553 373.017 211.232 356.375 199.426C339.832 187.69 329.567 169.69 325.994 149.426C317.851 103.242 348.394 67.2881 385.696 60.7108ZM391.773 95.179C378.164 97.5787 365.819 107.589 361.405 122.525C360.983 123.954 362.24 125.264 363.708 125.006L430.665 113.199C432.03 112.959 432.793 111.485 432.122 110.273C431.657 109.432 431.157 108.598 430.621 107.78C427.633 103.22 423.673 99.3571 418.212 96.9373C412.788 94.5335 404.493 92.9362 391.773 95.179Z" fill="currentColor"/>
<path d="M866.306 123.203C866.306 107.668 852.793 94.1533 837.256 94.1533C821.72 94.1535 808.207 107.668 808.206 123.203V200.204C808.206 205.616 803.819 210.004 798.406 210.004H783.006C777.594 210.004 773.206 205.616 773.206 200.204V123.203C773.206 107.668 759.693 94.1535 744.157 94.1533C728.694 94.1533 715.236 107.54 715.108 122.981L715.107 200.204C715.107 205.616 710.72 210.004 705.307 210.004H689.907C684.495 210.004 680.107 205.617 680.107 200.204L680.105 123.204C680.105 123.059 680.107 122.912 680.108 122.767V110.388L672.326 101.047C664.255 91.3592 665.566 76.9628 675.253 68.8919C682.06 63.2217 691.531 62.0004 699.553 65.7586L708.783 70.0826C718.977 63.2019 731.173 59.1533 744.157 59.1533C762.325 59.1534 778.95 67.0787 790.706 79.6017C802.463 67.0785 819.088 59.1534 837.256 59.1533C872.124 59.1533 901.306 88.3391 901.306 123.203V180.246L901.311 180.251L902.41 181.167C909.228 186.849 910.148 196.982 904.466 203.799C900.135 208.996 893.012 210.924 886.651 208.621L866.306 201.254V123.203Z" fill="currentColor"/>
<path d="M606.898 111.195C606.898 105.045 603.273 99.3575 597.371 97.628C589.577 95.3436 581.299 94.1504 572.598 94.1504C546.25 94.1504 527.446 113.914 527.446 136.15C527.446 160.661 543.589 178.15 566.998 178.15C581.974 178.15 591.265 173.722 596.914 167.768C602.696 161.674 606.898 151.621 606.898 136.15V111.195ZM641.898 180.252L642.999 181.169C649.815 186.849 650.736 196.979 645.057 203.795C640.727 208.991 633.606 210.919 627.246 208.617L609.545 202.208C597.505 209.624 582.959 213.15 566.998 213.15C521.803 213.15 492.446 177.44 492.446 136.15C492.446 93.2869 528.243 59.1504 572.598 59.1504C591.454 59.1504 609.277 63.2503 625.417 71.0514C630.578 73.5458 634.657 77.7585 637.523 82.7227C640.389 87.6869 641.898 93.3182 641.898 99.0504V180.252Z" fill="currentColor"/>
<path d="M1041.25 111.195C1041.25 105.045 1037.62 99.3575 1031.72 97.628C1023.93 95.3436 1015.65 94.1504 1006.95 94.1504C980.6 94.1504 961.796 113.914 961.796 136.15C961.796 160.661 977.939 178.15 1001.35 178.15C1016.32 178.15 1025.62 173.722 1031.26 167.768C1037.05 161.674 1041.25 151.621 1041.25 136.15V111.195ZM1076.25 180.252L1077.35 181.169C1084.17 186.849 1085.09 196.979 1079.41 203.795C1075.08 208.991 1067.96 210.919 1061.6 208.617L1043.89 202.208C1031.86 209.624 1017.31 213.15 1001.35 213.15C956.153 213.15 926.796 177.44 926.796 136.15C926.796 93.2869 962.593 59.1504 1006.95 59.1504C1025.8 59.1504 1043.63 63.2503 1059.77 71.0514C1064.93 73.5458 1069.01 77.7585 1071.87 82.7227C1074.74 87.6869 1076.25 93.3182 1076.25 99.0504V180.252Z" fill="currentColor"/>
</svg>
